<svg width="32" height="33" viewBox="0 0 32 33" fill="none" xmlns="http://www.w3.org/2000/svg">
<path d="M0 16.5C0 25.3366 7.16344 32.5 16 32.5C24.8366 32.5 32 25.3366 32 16.5C32 7.66344 24.8366 0.5 16 0.5C7.16344 0.5 0 7.66344 0 16.5Z" fill="#F00073"/>
<path d="M16.0002 9.69922C18.2002 9.69922 18.5002 9.69922 19.4002 9.69922C20.2002 9.69922 20.6002 9.89922 20.9002 9.99922C21.3002 10.1992 21.6002 10.2992 21.9002 10.5992C22.2002 10.8992 22.4002 11.1992 22.5002 11.5992C22.6002 11.8992 22.7002 12.2992 22.8002 13.0992C22.8002 13.9992 22.8002 14.1992 22.8002 16.4992C22.8002 18.7992 22.8002 18.9992 22.8002 19.8992C22.8002 20.6992 22.6002 21.0992 22.5002 21.3992C22.3002 21.7992 22.2002 22.0992 21.9002 22.3992C21.6002 22.6992 21.3002 22.8992 20.9002 22.9992C20.6002 23.0992 20.2002 23.1992 19.4002 23.2992C18.5002 23.2992 18.3002 23.2992 16.0002 23.2992C13.7002 23.2992 13.5002 23.2992 12.6002 23.2992C11.8002 23.2992 11.4002 23.0992 11.1002 22.9992C10.7002 22.7992 10.4002 22.6992 10.1002 22.3992C9.8002 22.0992 9.6002 21.7992 9.5002 21.3992C9.4002 21.0992 9.3002 20.6992 9.2002 19.8992C9.2002 18.9992 9.2002 18.7992 9.2002 16.4992C9.2002 14.1992 9.2002 13.9992 9.2002 13.0992C9.2002 12.2992 9.4002 11.8992 9.5002 11.5992C9.7002 11.1992 9.8002 10.8992 10.1002 10.5992C10.4002 10.2992 10.7002 10.0992 11.1002 9.99922C11.4002 9.89922 11.8002 9.79922 12.6002 9.69922C13.5002 9.69922 13.8002 9.69922 16.0002 9.69922ZM16.0002 8.19922C13.7002 8.19922 13.5002 8.19922 12.6002 8.19922C11.7002 8.19922 11.1002 8.39922 10.6002 8.59922C10.1002 8.79922 9.6002 9.09922 9.1002 9.59922C8.6002 10.0992 8.4002 10.4992 8.1002 11.0992C7.9002 11.5992 7.8002 12.1992 7.7002 13.0992C7.7002 13.9992 7.7002 14.2992 7.7002 16.4992C7.7002 18.7992 7.7002 18.9992 7.7002 19.8992C7.7002 20.7992 7.9002 21.3992 8.1002 21.8992C8.3002 22.3992 8.6002 22.8992 9.1002 23.3992C9.6002 23.8992 10.0002 24.0992 10.6002 24.3992C11.1002 24.5992 11.7002 24.6992 12.6002 24.7992C13.5002 24.7992 13.8002 24.7992 16.0002 24.7992C18.2002 24.7992 18.5002 24.7992 19.4002 24.7992C20.3002 24.7992 20.9002 24.5992 21.4002 24.3992C21.9002 24.1992 22.4002 23.8992 22.9002 23.3992C23.4002 22.8992 23.6002 22.4992 23.9002 21.8992C24.1002 21.3992 24.2002 20.7992 24.3002 19.8992C24.3002 18.9992 24.3002 18.6992 24.3002 16.4992C24.3002 14.2992 24.3002 13.9992 24.3002 13.0992C24.3002 12.1992 24.1002 11.5992 23.9002 11.0992C23.7002 10.5992 23.4002 10.0992 22.9002 9.59922C22.4002 9.09922 22.0002 8.89922 21.4002 8.59922C20.9002 8.39922 20.3002 8.29922 19.4002 8.19922C18.5002 8.19922 18.3002 8.19922 16.0002 8.19922Z" fill="white"/>
<path d="M16.0002 12.1992C13.6002 12.1992 11.7002 14.0992 11.7002 16.4992C11.7002 18.8992 13.6002 20.7992 16.0002 20.7992C18.4002 20.7992 20.3002 18.8992 20.3002 16.4992C20.3002 14.0992 18.4002 12.1992 16.0002 12.1992ZM16.0002 19.2992C14.5002 19.2992 13.2002 18.0992 13.2002 16.4992C13.2002 14.9992 14.4002 13.6992 16.0002 13.6992C17.5002 13.6992 18.8002 14.8992 18.8002 16.4992C18.8002 17.9992 17.5002 19.2992 16.0002 19.2992Z" fill="white"/>
<path d="M20.4002 13.0992C20.9525 13.0992 21.4002 12.6515 21.4002 12.0992C21.4002 11.5469 20.9525 11.0992 20.4002 11.0992C19.8479 11.0992 19.4002 11.5469 19.4002 12.0992C19.4002 12.6515 19.8479 13.0992 20.4002 13.0992Z" fill="white"/>
</svg>
