<svg width="32" height="33" viewBox="0 0 32 33" fill="none" xmlns="http://www.w3.org/2000/svg">
<path d="M32 16.5C32 7.66344 24.8366 0.5 16 0.5C7.16344 0.5 0 7.66344 0 16.5C0 25.3366 7.16344 32.5 16 32.5C24.8366 32.5 32 25.3366 32 16.5Z" fill="white"/>
<path d="M0 15.86C0 8.61733 0 5.00133 2.24 2.74C4.512 0.5 8.128 0.5 15.36 0.5H16.64C23.8827 0.5 27.4987 0.5 29.76 2.74C32 5.012 32 8.628 32 15.86V17.14C32 24.3827 32 27.9987 29.76 30.26C27.488 32.5 23.872 32.5 16.64 32.5H15.36C8.11733 32.5 4.50133 32.5 2.24 30.26C0 27.988 0 24.372 0 17.14V15.86Z" fill="#0047AB"/>
<path d="M17.0241 23.5512C9.72813 23.5512 5.56813 18.5592 5.39746 10.2392H9.06679C9.18413 16.3405 11.8721 18.9218 14.0055 19.4552V10.2392H17.4508V15.4978C19.5521 15.2738 21.7708 12.8738 22.5175 10.2285H25.9521C25.6721 11.5979 25.1126 12.8948 24.3088 14.0381C23.5049 15.1815 22.4739 16.1469 21.2801 16.8738C22.6123 17.5369 23.7888 18.4749 24.732 19.6258C25.6752 20.7768 26.3637 22.1147 26.7521 23.5512H22.9655C22.1548 21.0232 20.1281 19.0605 17.4508 18.7938V23.5512H17.0348H17.0241Z" fill="white"/>
</svg>
