<svg width="14" height="14" viewBox="0 0 14 14" fill="none" xmlns="http://www.w3.org/2000/svg">
<path d="M11.3615 3.21705C11.1061 2.96155 10.8029 2.75887 10.4691 2.62059C10.1354 2.48231 9.77771 2.41113 9.41647 2.41113C9.05522 2.41113 8.69752 2.48231 8.36379 2.62059C8.03006 2.75887 7.72684 2.96155 7.47147 3.21705L6.94147 3.74705L6.41147 3.21705C5.89562 2.7012 5.19598 2.4114 4.46647 2.4114C3.73695 2.4114 3.03731 2.7012 2.52147 3.21705C2.00562 3.73289 1.71582 4.43253 1.71582 5.16205C1.71582 5.89156 2.00562 6.5912 2.52147 7.10705L3.05147 7.63705L6.94147 11.527L10.8315 7.63705L11.3615 7.10705C11.617 6.85167 11.8196 6.54845 11.9579 6.21472C12.0962 5.88099 12.1674 5.52329 12.1674 5.16205C12.1674 4.8008 12.0962 4.4431 11.9579 4.10937C11.8196 3.77564 11.617 3.47242 11.3615 3.21705V3.21705Z" stroke="#0047AB" stroke-linecap="round" stroke-linejoin="round"/>
</svg>
