<svg width="14" height="11" viewBox="0 0 14 11" fill="none" xmlns="http://www.w3.org/2000/svg">
<path d="M8.26691 0.221356L13.0482 4.72136C13.1225 4.79103 13.1814 4.87383 13.2216 4.96499C13.2618 5.05615 13.2825 5.1539 13.2825 5.25261C13.2825 5.35132 13.2618 5.44906 13.2216 5.54022C13.1814 5.63138 13.1225 5.71418 13.0482 5.78386L8.26691 10.2839C8.11721 10.4248 7.91417 10.5039 7.70246 10.5039C7.49075 10.5039 7.28771 10.4248 7.13801 10.2839C6.98831 10.143 6.9042 9.95186 6.9042 9.75261C6.9042 9.55335 6.98831 9.36225 7.13801 9.22136L10.5586 6.00198L0.796875 6.00198C0.585531 6.00198 0.382842 5.92296 0.233399 5.78231C0.0839563 5.64166 6.02566e-08 5.45089 6.26286e-08 5.25198C6.50006e-08 5.05307 0.0839563 4.8623 0.233399 4.72165C0.382842 4.581 0.585531 4.50198 0.796875 4.50198L10.5586 4.50198L7.13734 1.28261C6.98764 1.14171 6.90354 0.950614 6.90354 0.751356C6.90354 0.552098 6.98764 0.361002 7.13734 0.220106C7.28705 0.0792104 7.49009 5.34951e-05 7.7018 5.34976e-05C7.91351 5.35001e-05 8.11655 0.0792104 8.26625 0.220106L8.26691 0.221356Z" fill="#0047AB"/>
</svg>
