<svg width="18" height="18" fill="none" xmlns="http://www.w3.org/2000/svg"><path d="M7.5 0H.375A.376.376 0 000 .375V7.5c0 .206.169.375.375.375H7.5a.376.376 0 00.375-.375V.375A.376.376 0 007.5 0zM6.281 6.281H1.594V1.594H6.28V6.28zM16.875 0H9.75a.376.376 0 00-.375.375V7.5c0 .206.169.375.375.375h7.125a.376.376 0 00.375-.375V.375A.376.376 0 0016.875 0zm-1.219 6.281H10.97V1.594h4.687V6.28zM7.5 9.375H.375A.376.376 0 000 9.75v7.125c0 .206.169.375.375.375H7.5a.376.376 0 00.375-.375V9.75a.376.376 0 00-.375-.375zm-1.219 6.281H1.594V10.97H6.28v4.687zm10.594-6.281H9.75a.376.376 0 00-.375.375v7.125c0 .206.169.375.375.375h7.125a.376.376 0 00.375-.375V9.75a.376.376 0 00-.375-.375zm-1.219 6.281H10.97V10.97h4.687v4.687z" fill="#fff"/></svg>