<svg width="25" height="25" viewBox="0 0 25 25" fill="none" xmlns="http://www.w3.org/2000/svg">
<path d="M21.5 11.8281H12.5V14.8281H17.5C16.7579 16.9238 14.8503 18.2281 12.5 18.2281C9.51785 18.2281 7.1 15.8103 7.1 12.8281C7.1 9.84597 9.51785 7.42812 12.5 7.42812C13.8765 7.42812 15.1289 7.94742 16.0824 8.79567L18.6281 6.25003C17.0207 4.75198 14.8706 3.82812 12.5 3.82812C7.52975 3.82812 3.5 7.85787 3.5 12.8281C3.5 17.7984 7.52975 21.8281 12.5 21.8281C17.4703 21.8281 21.5 17.7984 21.5 12.8281C21.5 12.2247 21.5 11.8281 21.5 11.8281Z" fill="#FFC107"/>
<path d="M4.5 8.65321L7.43798 10.8281C8.23295 8.84141 10.1582 7.4387 12.4112 7.4387C13.7789 7.4387 15.0232 7.95952 15.9707 8.81027L18.5 6.25714C16.9029 4.75469 14.7666 3.82812 12.4112 3.82812C8.97649 3.82812 5.99783 5.78551 4.5 8.65321Z" fill="#FF3D00"/>
<path d="M12.4858 21.8281C14.8029 21.8281 16.9082 20.9603 18.5 19.5489L15.7237 17.2495C14.8231 17.9172 13.7036 18.3163 12.4858 18.3163C10.1527 18.3163 8.17156 16.8602 7.42523 14.8281L4.5 17.034C5.98459 19.8773 8.99952 21.8281 12.4858 21.8281Z" fill="#4CAF50"/>
<path d="M21.5 11.8281L12.5 11.8281V14.8281H17.5C17.1436 15.7786 16.3352 16.2311 15.5 16.8281L18.5 19.8281C18.3029 19.9972 21.5 17.5771 21.5 13.3281C21.5 12.7583 21.5 11.8281 21.5 11.8281Z" fill="#0047AB"/>
</svg>
