<svg width="11" height="14" viewBox="0 0 11 14" fill="none" xmlns="http://www.w3.org/2000/svg">
<path d="M10.4577 5.76012C10.4577 9.59156 5.49935 12.8757 5.49935 12.8757C5.49935 12.8757 0.541016 9.59156 0.541016 5.76012C0.541016 4.45363 1.06341 3.20065 1.99328 2.27682C2.92315 1.35299 4.18432 0.833984 5.49935 0.833984C6.81438 0.833984 8.07555 1.35299 9.00542 2.27682C9.93529 3.20065 10.4577 4.45363 10.4577 5.76012Z" stroke="#575757" stroke-linecap="round" stroke-linejoin="round"/>
<path d="M5.49967 7.20833C6.28208 7.20833 6.91634 6.57407 6.91634 5.79167C6.91634 5.00926 6.28208 4.375 5.49967 4.375C4.71727 4.375 4.08301 5.00926 4.08301 5.79167C4.08301 6.57407 4.71727 7.20833 5.49967 7.20833Z" stroke="#575757" stroke-linecap="round" stroke-linejoin="round"/>
</svg>
