<svg width="17" height="18" viewBox="0 0 17 18" fill="none" xmlns="http://www.w3.org/2000/svg">
<path fill-rule="evenodd" clip-rule="evenodd" d="M7.5 0.5C11.6421 0.5 15 3.85786 15 8C15 9.71015 14.4276 11.2866 13.464 12.5483L16.7071 15.7929C17.0976 16.1834 17.0976 16.8166 16.7071 17.2071C16.3466 17.5676 15.7794 17.5953 15.3871 17.2903L15.2929 17.2071L12.0483 13.964C10.7866 14.9276 9.21015 15.5 7.5 15.5C3.35786 15.5 0 12.1421 0 8C0 3.85786 3.35786 0.5 7.5 0.5ZM7.5 2.5C4.46243 2.5 2 4.96243 2 8C2 11.0376 4.46243 13.5 7.5 13.5C8.85114 13.5 10.0885 13.0128 11.0459 12.2045C11.091 12.0536 11.1738 11.912 11.2929 11.7929C11.412 11.6738 11.5536 11.591 11.7041 11.5446C12.5128 10.5885 13 9.35114 13 8C13 4.96243 10.5376 2.5 7.5 2.5Z" fill="#7E84A3"/>
</svg>
