<svg width="32" height="32" viewBox="0 0 32 32" fill="none" xmlns="http://www.w3.org/2000/svg">
<circle cx="16" cy="16" r="16" fill="#0047AB"/>
<path d="M17.9225 11.1404C16.1886 9.40653 13.3767 9.40653 11.6428 11.1404C9.90889 12.8743 9.90889 15.6862 11.6428 17.4201C13.1788 18.9561 15.561 19.1295 17.2892 17.9441L19.451 20.3621C19.8185 20.7748 20.4574 20.7918 20.8475 20.4017L20.904 20.3451C21.2942 19.955 21.2772 19.3161 20.8645 18.9486L18.4464 16.7869C19.6338 15.0568 19.4585 12.6764 17.9225 11.1404ZM16.8445 16.3421C15.7061 17.4804 13.8591 17.4804 12.7208 16.3421C11.5825 15.2038 11.5825 13.3568 12.7208 12.2184C13.8591 11.0801 15.7061 11.0801 16.8445 12.2184C17.9847 13.3587 17.9828 15.2038 16.8445 16.3421Z" fill="white" fill-opacity="0.3"/>
</svg>
