<svg width="18" height="19" viewBox="0 0 18 19" fill="none" xmlns="http://www.w3.org/2000/svg">
<path fill-rule="evenodd" clip-rule="evenodd" d="M9.82135 4.27556C9.82095 3.41129 10.1214 2.57383 10.6712 1.90693C11.2209 1.24004 11.9857 0.785302 12.8341 0.620781C13.6826 0.456261 14.5619 0.592216 15.321 1.00531C16.0802 1.41841 16.6719 2.08288 16.9945 2.88466C17.3172 3.68645 17.3507 4.57555 17.0893 5.39934C16.8279 6.22313 16.2879 6.93024 15.5619 7.39929C14.836 7.86834 13.9695 8.07008 13.111 7.96987C12.2526 7.86966 11.4558 7.47375 10.8574 6.85012L8.07224 8.49345C8.29911 9.21748 8.29911 9.99358 8.07224 10.7176L10.8565 12.361C11.4886 11.7025 12.3407 11.2993 13.2508 11.2281C14.1608 11.157 15.0653 11.4228 15.7921 11.975C16.5189 12.5273 17.0174 13.3274 17.1927 14.2232C17.368 15.119 17.2079 16.048 16.7429 16.8335C16.2779 17.619 15.5404 18.2062 14.6707 18.4833C13.801 18.7605 12.8597 18.7083 12.026 18.3367C11.1922 17.9651 10.5242 17.3 10.1488 16.4679C9.77351 15.6358 9.71713 14.6948 9.9904 13.8239L7.20618 12.1806C6.69225 12.7167 6.02966 13.0868 5.30365 13.2432C4.57764 13.3996 3.82144 13.3352 3.13234 13.0582C2.44324 12.7813 1.85277 12.3045 1.43692 11.6892C1.02106 11.0739 0.798828 10.3482 0.798828 9.60553C0.798828 8.86287 1.02106 8.13719 1.43692 7.52188C1.85277 6.90656 2.44324 6.42976 3.13234 6.15282C3.82144 5.87588 4.57764 5.81147 5.30365 5.96789C6.02966 6.1243 6.69225 6.49438 7.20618 7.03051L9.9904 5.38717C9.87795 5.02704 9.82095 4.6519 9.82135 4.27462V4.27556ZM6.29007 10.5826C6.26762 10.6148 6.24742 10.6486 6.22963 10.6836C5.99583 11.0541 5.64796 11.3387 5.23843 11.4943C4.82889 11.65 4.37987 11.6683 3.95899 11.5466C3.53811 11.425 3.16817 11.1698 2.90489 10.8196C2.64161 10.4694 2.49924 10.0432 2.49924 9.60506C2.49924 9.16694 2.64161 8.74069 2.90489 8.3905C3.16817 8.04032 3.53811 7.78516 3.95899 7.66348C4.37987 7.54179 4.82889 7.56016 5.23843 7.71581C5.64796 7.87147 5.99583 8.15599 6.22963 8.52651C6.24741 8.56185 6.2676 8.59593 6.29007 8.62851C6.45063 8.91845 6.54129 9.25184 6.54129 9.60506C6.54129 9.95923 6.45063 10.2926 6.29007 10.5826ZM11.7735 13.959C11.5175 14.4241 11.4548 14.9713 11.599 15.4823C11.7432 15.9933 12.0827 16.4271 12.5441 16.6898C13.0055 16.9525 13.5517 17.0231 14.0648 16.8864C14.5778 16.7496 15.0164 16.4164 15.2858 15.9589C15.5552 15.5014 15.6337 14.9562 15.5044 14.4412C15.3751 13.9263 15.0484 13.4829 14.5948 13.2069C14.1412 12.9309 13.5972 12.8444 13.0805 12.9663C12.5637 13.0881 12.1156 13.4084 11.833 13.8579C11.8156 13.893 11.7957 13.9267 11.7735 13.959ZM13.5425 6.29478C12.8228 6.29478 12.191 5.9189 11.833 5.35223C11.8153 5.31796 11.7954 5.28483 11.7735 5.25306C11.5589 4.86512 11.4778 4.41737 11.5427 3.97879C11.6076 3.5402 11.8149 3.13513 12.1326 2.82596C12.4504 2.5168 12.861 2.32071 13.3012 2.2679C13.7414 2.21508 14.1868 2.30848 14.5687 2.5337C14.9506 2.75892 15.2478 3.10346 15.4146 3.51425C15.5814 3.92504 15.6085 4.37927 15.4917 4.80697C15.375 5.23467 15.1208 5.61211 14.7684 5.88113C14.416 6.15016 13.9849 6.29584 13.5415 6.29573L13.5425 6.29478Z" fill="#252525"/>
</svg>
