<svg width="10" height="8" viewBox="0 0 10 8" fill="none" xmlns="http://www.w3.org/2000/svg">
<path d="M5.37362 0.27328C5.30343 0.131057 5.15858 0.0410156 4.99998 0.0410156C4.84138 0.0410156 4.69653 0.131057 4.62634 0.27328L3.57253 2.40853L1.21614 2.75094C1.05919 2.77375 0.928791 2.88368 0.87978 3.03452C0.83077 3.18536 0.871644 3.35094 0.985216 3.46164L2.69032 5.12371L2.2878 7.47058C2.26099 7.6269 2.32525 7.78488 2.45356 7.87811C2.58187 7.97133 2.75198 7.98362 2.89236 7.90982L4.99998 6.80178L7.10761 7.90982C7.24799 7.98362 7.4181 7.97133 7.54641 7.87811C7.67472 7.78488 7.73898 7.6269 7.71217 7.47058L7.30965 5.12371L9.01475 3.46164C9.12832 3.35094 9.1692 3.18536 9.12018 3.03452C9.07117 2.88368 8.94078 2.77375 8.78383 2.75094L6.42743 2.40853L5.37362 0.27328Z" fill="#FFC400"/>
</svg>
