<svg width="25" height="25" viewBox="0 0 25 25" fill="none" xmlns="http://www.w3.org/2000/svg">
<g clip-path="url(#clip0_539_18679)">
<path d="M12.5 24.8037C19.1139 24.8037 24.4755 19.442 24.4755 12.8281C24.4755 6.21418 19.1139 0.852539 12.5 0.852539C5.88605 0.852539 0.524414 6.21418 0.524414 12.8281C0.524414 19.442 5.88605 24.8037 12.5 24.8037Z" fill="#FC3F1D"/>
<path d="M16.8334 20.3464H14.2046V7.34415H13.0334C10.8868 7.34415 9.76233 8.41748 9.76233 10.0197C9.76233 11.8375 10.5379 12.6797 12.1423 13.753L13.4646 14.6441L9.66456 20.3441H6.83789L10.2579 15.2553C8.29122 13.8508 7.18456 12.4797 7.18456 10.1664C7.18456 7.27526 9.20011 5.30859 13.0157 5.30859H16.8157V20.3419H16.8334V20.3464Z" fill="white"/>
</g>
<defs>
<clipPath id="clip0_539_18679">
<rect width="24" height="24" fill="white" transform="translate(0.5 0.828125)"/>
</clipPath>
</defs>
</svg>
